<?xml version="1.0" encoding="utf-8"?>
<!-- Generator: Adobe Illustrator 16.0.3, SVG Export Plug-In . SVG Version: 6.00 Build 0)  -->
<!DOCTYPE svg PUBLIC "-//W3C//DTD SVG 1.1//EN" "http://www.w3.org/Graphics/SVG/1.1/DTD/svg11.dtd">
<svg version="1.1" xmlns="http://www.w3.org/2000/svg" xmlns:xlink="http://www.w3.org/1999/xlink" x="0px" y="0px" width="32px"
	 height="32px" viewBox="0 0 32 32" enable-background="new 0 0 32 32" xml:space="preserve">
<g id="Layer_1">
	<g id="Layer_2">
		<g>
			<circle fill="#ED1C24" stroke="#000000" stroke-width="0.5" stroke-miterlimit="10" cx="16" cy="16.047" r="15.453"/>
			<path fill="#FFFFFF" stroke="#000000" stroke-width="0.5" stroke-miterlimit="10" d="M31.355,16
				c0,8.51-6.896,15.406-15.405,15.406C7.442,31.406,0.543,24.51,0.543,16"/>
			<line fill="none" stroke="#000000" stroke-width="2" stroke-miterlimit="10" x1="0.5" y1="16" x2="31.445" y2="16"/>
			<circle fill="#FFFFFF" stroke="#000000" stroke-width="0.5" stroke-miterlimit="10" cx="16" cy="16" r="4.438"/>
			<circle fill="#FFFFFF" stroke="#000000" stroke-width="0.25" stroke-miterlimit="10" cx="16" cy="16" r="2.424"/>
		</g>
		<g>
			<path fill="#FFFFFF" d="M16,32C7.204,32,0.047,24.844,0.047,16.047C0.047,7.25,7.204,0.094,16,0.094
				c8.797,0,15.953,7.157,15.953,15.953C31.953,24.844,24.797,32,16,32z"/>
			<path fill="#FFFFFF" d="M15.95,31.906C7.179,31.906,0.043,24.771,0.043,16c0-0.276,0.224-0.5,0.5-0.5s0.5,0.224,0.5,0.5
				c0,8.22,6.688,14.906,14.907,14.906c8.219,0,14.905-6.687,14.905-14.906c0-0.276,0.224-0.5,0.5-0.5s0.5,0.224,0.5,0.5
				C31.855,24.771,24.721,31.906,15.95,31.906z"/>
			<path fill="#FFFFFF" d="M31.445,16.5H0.5C0.224,16.5,0,16.276,0,16s0.224-0.5,0.5-0.5h30.945c0.276,0,0.5,0.224,0.5,0.5
				S31.722,16.5,31.445,16.5z"/>
			<path fill="#FFFFFF" d="M16,20.938c-2.723,0-4.938-2.215-4.938-4.938s2.215-4.938,4.938-4.938s4.938,2.215,4.938,4.938
				S18.723,20.938,16,20.938z"/>
			<circle fill="#FFFFFF" cx="16" cy="16" r="2.924"/>
		</g>
	</g>
	<g id="Layer_1_1_" focusable="false">
		<g>
			<path d="M23.17,8.33c-1.953-1.83-4.488-2.833-7.179-2.83C11.149,5.504,6.97,8.824,5.816,13.428C5.732,13.763,5.434,14,5.088,14
				H1.506c-0.469,0-0.825-0.425-0.738-0.886C2.121,5.933,8.426,0.5,16,0.5c4.152,0,7.924,1.633,10.707,4.293l2.232-2.232
				c0.945-0.945,2.561-0.276,2.561,1.06V12c0,0.829-0.672,1.5-1.5,1.5h-8.379c-1.336,0-2.006-1.616-1.061-2.561L23.17,8.33z M2,18.5
				h8.379c1.336,0,2.005,1.615,1.061,2.561L8.83,23.67c1.954,1.83,4.49,2.832,7.18,2.83c4.84-0.004,9.02-3.32,10.174-7.928
				C26.268,18.236,26.566,18,26.912,18h3.582c0.469,0,0.824,0.426,0.736,0.887C29.879,26.066,23.574,31.5,16,31.5
				c-4.153,0-7.924-1.633-10.707-4.293l-2.232,2.232C2.116,30.385,0.5,29.715,0.5,28.379V20C0.5,19.172,1.171,18.5,2,18.5z"/>
		</g>
		<g>
			<path fill="#FFFFFF" d="M16,32c-3.974,0-7.752-1.452-10.694-4.099l-1.892,1.892c-0.379,0.38-0.878,0.589-1.403,0.589
				C0.902,30.382,0,29.483,0,28.379V20c0-1.103,0.897-2,2-2h8.379c0.824,0,1.532,0.473,1.847,1.233
				c0.316,0.762,0.15,1.597-0.432,2.181l-2.235,2.234c1.8,1.521,4.068,2.352,6.443,2.352c4.6-0.004,8.584-3.108,9.696-7.549
				c0.141-0.561,0.64-0.951,1.214-0.951h3.582c0.374,0,0.725,0.165,0.964,0.453c0.237,0.287,0.333,0.662,0.264,1.027
				C30.302,26.524,23.689,32,16,32z M1.506,14.5c-0.374,0-0.725-0.165-0.964-0.453c-0.237-0.287-0.334-0.661-0.265-1.026
				C1.698,5.477,8.311,0,16,0c3.974,0,7.752,1.452,10.694,4.099l1.892-1.892c0.38-0.38,0.878-0.589,1.403-0.589
				C31.098,1.619,32,2.517,32,3.621V12c0,1.103-0.897,2-2,2h-8.379c-0.824,0-1.532-0.473-1.848-1.235
				c-0.315-0.762-0.149-1.597,0.434-2.179l2.234-2.234C20.643,6.832,18.376,6,16.003,6c-4.604,0.004-8.588,3.108-9.702,7.55
				c-0.14,0.56-0.639,0.95-1.213,0.95H1.506z"/>
		</g>
	</g>
</g>
<g id="Layer_2_1_">
	<g id="Layer_2_2_">
		<circle fill="#ED1C24" stroke="#000000" stroke-width="0.5" stroke-miterlimit="10" cx="16.023" cy="16" r="15.453"/>
		<path fill="#FFFFFF" stroke="#000000" stroke-width="0.5" stroke-miterlimit="10" d="M31.379,15.953
			c0,8.51-6.896,15.406-15.405,15.406c-8.508,0-15.407-6.896-15.407-15.406"/>
		<line fill="none" stroke="#000000" stroke-width="2" stroke-miterlimit="10" x1="0.523" y1="15.953" x2="31.469" y2="15.953"/>
		<circle fill="#FFFFFF" stroke="#000000" stroke-width="0.5" stroke-miterlimit="10" cx="16.023" cy="15.953" r="4.438"/>
		<circle fill="#FFFFFF" stroke="#000000" stroke-width="0.25" stroke-miterlimit="10" cx="16.023" cy="15.953" r="2.424"/>
	</g>
	<g id="Layer_1_2_" focusable="false">
		<path d="M23.17,8.33c-1.953-1.83-4.488-2.833-7.179-2.83C11.149,5.504,6.97,8.824,5.816,13.428C5.732,13.764,5.434,14,5.088,14
			H1.506c-0.469,0-0.825-0.425-0.738-0.886C2.121,5.933,8.426,0.5,16,0.5c4.152,0,7.924,1.633,10.707,4.293l2.232-2.232
			c0.945-0.945,2.561-0.276,2.561,1.06V12c0,0.829-0.672,1.5-1.5,1.5h-8.379c-1.336,0-2.006-1.616-1.061-2.561L23.17,8.33z M2,18.5
			h8.379c1.336,0,2.005,1.615,1.061,2.561L8.83,23.67c1.954,1.83,4.49,2.832,7.18,2.83c4.84-0.004,9.02-3.32,10.174-7.928
			C26.268,18.236,26.566,18,26.912,18h3.582c0.469,0,0.824,0.426,0.736,0.887C29.879,26.066,23.574,31.5,16,31.5
			c-4.153,0-7.924-1.633-10.707-4.293l-2.232,2.232C2.116,30.385,0.5,29.715,0.5,28.379V20C0.5,19.172,1.171,18.5,2,18.5z"/>
	</g>
</g>
</svg>
