<?xml version="1.0" encoding="utf-8"?>
<!-- Generator: Adobe Illustrator 16.0.3, SVG Export Plug-In . SVG Version: 6.00 Build 0)  -->
<!DOCTYPE svg PUBLIC "-//W3C//DTD SVG 1.1//EN" "http://www.w3.org/Graphics/SVG/1.1/DTD/svg11.dtd">
<svg version="1.1" xmlns="http://www.w3.org/2000/svg" xmlns:xlink="http://www.w3.org/1999/xlink" x="0px" y="0px" width="32px"
	 height="32px" viewBox="0 0 32 32" enable-background="new 0 0 32 32" xml:space="preserve">
<g id="Layer_2">
	<circle fill="#ED1C24" stroke="#000000" stroke-width="0.5" stroke-miterlimit="10" cx="16" cy="16.047" r="15.453"/>
	<path fill="#FFFFFF" stroke="#000000" stroke-width="0.5" stroke-miterlimit="10" d="M31.356,16c0,8.51-6.896,15.406-15.406,15.406
		C7.442,31.406,0.543,24.51,0.543,16"/>
	<line fill="none" stroke="#000000" stroke-width="2" stroke-miterlimit="10" x1="0.5" y1="16" x2="31.446" y2="16"/>
	<circle fill="#FFFFFF" stroke="#000000" stroke-width="0.5" stroke-miterlimit="10" cx="16" cy="16" r="4.438"/>
	<circle fill="#FFFFFF" stroke="#000000" stroke-width="0.25" stroke-miterlimit="10" cx="16" cy="16" r="2.424"/>
</g>
<g id="Layer_1" focusable="false">
	<path d="M23.17,8.33c-1.953-1.83-4.489-2.833-7.179-2.83C11.149,5.504,6.97,8.824,5.816,13.428C5.732,13.763,5.434,14,5.088,14
		H1.506c-0.469,0-0.825-0.425-0.738-0.886C2.121,5.933,8.426,0.5,16,0.5c4.152,0,7.924,1.633,10.707,4.293l2.232-2.232
		C29.885,1.616,31.5,2.285,31.5,3.621V12c0,0.829-0.672,1.5-1.5,1.5h-8.379c-1.336,0-2.006-1.616-1.061-2.561L23.17,8.33z M2,18.5
		h8.379c1.336,0,2.005,1.615,1.061,2.561L8.83,23.67c1.954,1.83,4.49,2.832,7.18,2.83c4.839-0.004,9.02-3.321,10.174-7.928
		C26.268,18.236,26.566,18,26.912,18h3.582c0.469,0,0.824,0.426,0.737,0.887C29.879,26.067,23.574,31.5,16,31.5
		c-4.153,0-7.924-1.633-10.707-4.293l-2.232,2.232C2.116,30.385,0.5,29.715,0.5,28.379V20C0.5,19.172,1.171,18.5,2,18.5z"/>
</g>
</svg>
