<?xml version="1.0" encoding="utf-8"?>
<!-- Generator: Adobe Illustrator 16.0.3, SVG Export Plug-In . SVG Version: 6.00 Build 0)  -->
<!DOCTYPE svg PUBLIC "-//W3C//DTD SVG 1.1//EN" "http://www.w3.org/Graphics/SVG/1.1/DTD/svg11.dtd">
<svg version="1.1" id="Layer_1" xmlns="http://www.w3.org/2000/svg" xmlns:xlink="http://www.w3.org/1999/xlink" x="0px" y="0px"
	 width="35.282px" height="35.282px" viewBox="-1.532 -1.365 35.282 35.282" enable-background="new -1.532 -1.365 35.282 35.282"
	 xml:space="preserve">
<g id="Layer_1_5_">
	<g>
		<g id="Layer_2_11_">
			<g>
				<circle fill="#ED1C24" stroke="#000000" stroke-width="0.5" stroke-miterlimit="10" cx="16.109" cy="16.323" r="15.453"/>
				<path fill="#FFFFFF" stroke="#000000" stroke-width="0.5" stroke-miterlimit="10" d="M31.465,16.276
					c0,8.509-6.896,15.406-15.406,15.406c-8.509,0-15.407-6.896-15.407-15.406"/>
				<line fill="none" stroke="#000000" stroke-width="2" stroke-miterlimit="10" x1="0.609" y1="16.276" x2="31.555" y2="16.276"/>
				<circle fill="#FFFFFF" stroke="#000000" stroke-width="0.5" stroke-miterlimit="10" cx="16.109" cy="16.275" r="4.438"/>
				<circle fill="#FFFFFF" stroke="#000000" stroke-width="0.25" stroke-miterlimit="10" cx="16.109" cy="16.276" r="2.424"/>
			</g>
			<g>
				<path fill="#FFFFFF" d="M16.109,32.275c-8.796,0-15.953-7.156-15.953-15.953c0-8.797,7.157-15.953,15.953-15.953
					c8.797,0,15.954,7.157,15.954,15.953C32.063,25.119,24.906,32.275,16.109,32.275z"/>
				<path fill="#FFFFFF" d="M16.059,32.182c-8.771,0-15.907-7.135-15.907-15.906c0-0.276,0.224-0.5,0.5-0.5
					c0.275,0,0.5,0.224,0.5,0.5c0,8.22,6.688,14.906,14.907,14.906c8.218,0,14.906-6.688,14.906-14.906c0-0.276,0.223-0.5,0.5-0.5
					c0.275,0,0.5,0.224,0.5,0.5C31.965,25.047,24.83,32.182,16.059,32.182z"/>
				<path fill="#FFFFFF" d="M31.555,16.775H0.609c-0.276,0-0.5-0.224-0.5-0.5s0.224-0.5,0.5-0.5h30.946c0.275,0,0.5,0.224,0.5,0.5
					S31.832,16.775,31.555,16.775z"/>
				<path fill="#FFFFFF" d="M16.109,21.213c-2.724,0-4.938-2.215-4.938-4.937c0-2.723,2.215-4.938,4.938-4.938
					c2.723,0,4.938,2.215,4.938,4.938C21.047,18.998,18.832,21.213,16.109,21.213z"/>
				<circle fill="#FFFFFF" cx="16.109" cy="16.276" r="2.924"/>
			</g>
		</g>
		<g id="Layer_1_12_" focusable="false">
			<g>
				<path d="M23.279,8.606c-1.953-1.83-4.488-2.833-7.179-2.83C11.257,5.78,7.079,9.1,5.924,13.704
					c-0.084,0.335-0.382,0.572-0.728,0.572H1.615c-0.469,0-0.825-0.425-0.738-0.886C2.23,6.209,8.535,0.776,16.109,0.776
					c4.153,0,7.924,1.633,10.708,4.293l2.232-2.232c0.943-0.945,2.561-0.276,2.561,1.06v8.379c0,0.829-0.672,1.5-1.5,1.5H21.73
					c-1.336,0-2.006-1.616-1.061-2.561L23.279,8.606z M2.109,18.775h8.379c1.336,0,2.005,1.615,1.061,2.561l-2.609,2.609
					c1.954,1.83,4.489,2.832,7.18,2.83c4.84-0.004,9.02-3.32,10.174-7.928c0.084-0.336,0.383-0.572,0.729-0.572h3.582
					c0.469,0,0.824,0.426,0.736,0.887c-1.352,7.18-7.656,12.613-15.231,12.613c-4.153,0-7.924-1.633-10.707-4.293l-2.232,2.232
					c-0.944,0.945-2.561,0.275-2.561-1.061v-8.379C0.609,19.447,1.28,18.775,2.109,18.775z"/>
			</g>
			<g>
				<path fill="#FFFFFF" d="M16.109,32.275c-3.975,0-7.752-1.451-10.694-4.1l-1.892,1.893c-0.379,0.381-0.878,0.59-1.403,0.59
					c-1.109,0-2.011-0.9-2.011-2.004v-8.379c0-1.104,0.896-2,2-2h8.379c0.824,0,1.532,0.473,1.847,1.232
					c0.316,0.764,0.15,1.598-0.432,2.182l-2.235,2.234c1.8,1.521,4.068,2.352,6.443,2.352c4.6-0.004,8.584-3.107,9.696-7.549
					c0.141-0.561,0.641-0.951,1.215-0.951h3.582c0.373,0,0.725,0.166,0.963,0.453s0.334,0.662,0.266,1.027
					C30.41,26.799,23.799,32.275,16.109,32.275z M1.615,14.776c-0.374,0-0.725-0.165-0.964-0.453
					c-0.237-0.287-0.334-0.661-0.266-1.026C1.807,5.753,8.419,0.276,16.109,0.276c3.975,0,7.752,1.452,10.694,4.099l1.893-1.892
					c0.379-0.38,0.877-0.589,1.402-0.589c1.109,0.001,2.012,0.899,2.012,2.003v8.379c0,1.103-0.896,2-2,2H21.73
					c-0.824,0-1.533-0.473-1.848-1.235c-0.316-0.762-0.15-1.597,0.434-2.179l2.234-2.234c-1.799-1.52-4.066-2.352-6.439-2.352
					c-4.604,0.004-8.588,3.108-9.702,7.55c-0.14,0.56-0.639,0.95-1.213,0.95H1.615z"/>
			</g>
		</g>
	</g>
	<g>
		<g id="Layer_2_10_">
			<g>
				<path fill="#FFFFFF" d="M16.109,33.275c-9.348,0-16.953-7.604-16.953-16.953S6.761-0.63,16.109-0.63s16.954,7.605,16.954,16.953
					S25.457,33.275,16.109,33.275z"/>
				<path fill="#FFFFFF" d="M16.059,33.182c-9.323,0-16.907-7.584-16.907-16.906h3c0,7.667,6.239,13.906,13.907,13.906
					c7.667,0,13.906-6.238,13.906-13.906h3C32.965,25.598,25.381,33.182,16.059,33.182z"/>
				<rect x="0.609" y="14.776" fill="#FFFFFF" width="30.946" height="3"/>
				<path fill="#FFFFFF" d="M16.109,22.213c-3.274,0-5.938-2.663-5.938-5.937c0-3.274,2.664-5.938,5.938-5.938
					c3.274,0,5.938,2.664,5.938,5.938C22.047,19.55,19.383,22.213,16.109,22.213z"/>
				<path fill="#FFFFFF" d="M16.109,20.199c-2.164,0-3.924-1.76-3.924-3.923s1.76-3.924,3.924-3.924s3.924,1.76,3.924,3.924
					S18.272,20.199,16.109,20.199z"/>
			</g>
			<g>
				<path fill="#FFFFFF" d="M16.109,33.775c-9.624,0-17.453-7.829-17.453-17.453S6.485-1.13,16.109-1.13s17.454,7.83,17.454,17.453
					S25.732,33.775,16.109,33.775z"/>
				<path fill="#FFFFFF" d="M16.059,33.682c-9.598,0-17.407-7.809-17.407-17.406c0-1.103,0.897-2,2-2s2,0.897,2,2
					c0,7.392,6.015,13.406,13.407,13.406c7.392,0,13.406-6.014,13.406-13.406c0-1.103,0.897-2,2-2s2,0.897,2,2
					C33.465,25.873,25.656,33.682,16.059,33.682z"/>
				<path fill="#FFFFFF" d="M0.609,18.275c-1.103,0-2-0.897-2-2c0-1.103,0.897-2,2-2h30.946c1.103,0,2,0.897,2,2
					c0,1.102-0.897,2-2,2H0.609z"/>
				<path fill="#FFFFFF" d="M16.109,22.713c-3.55,0-6.438-2.888-6.438-6.437c0-3.55,2.888-6.438,6.438-6.438
					s6.438,2.888,6.438,6.438C22.547,19.825,19.659,22.713,16.109,22.713z"/>
				<path fill="#FFFFFF" d="M16.109,20.699c-2.439,0-4.424-1.984-4.424-4.423c0-2.439,1.984-4.424,4.424-4.424
					c2.44,0,4.424,1.984,4.424,4.424C20.533,18.715,18.549,20.699,16.109,20.699z"/>
			</g>
		</g>
		<g id="Layer_1_11_" focusable="false">
			<g>
				<path fill="#FFFFFF" d="M16.109,33.275c-3.903,0-7.629-1.318-10.639-3.739l-1.24,1.239c-0.568,0.568-1.317,0.882-2.11,0.882
					c-1.661,0-3.011-1.347-3.011-3.003v-8.379c0-1.654,1.346-3,3-3h8.379c1.217,0,2.305,0.727,2.771,1.851
					c0.466,1.125,0.211,2.408-0.649,3.271l-1.418,1.418c1.452,0.95,3.153,1.461,4.92,1.461c4.14-0.003,7.726-2.797,8.727-6.792
					c0.251-1.006,1.149-1.708,2.184-1.708h3.582c0.673,0,1.305,0.298,1.734,0.815c0.428,0.518,0.602,1.193,0.476,1.853
					C31.305,27.457,24.279,33.275,16.109,33.275z M1.615,15.776c-0.673,0-1.305-0.297-1.734-0.815
					c-0.428-0.516-0.603-1.19-0.479-1.849C0.914,5.095,7.939-0.724,16.109-0.724c3.904,0,7.629,1.318,10.64,3.74l1.239-1.239
					c0.567-0.568,1.316-0.882,2.109-0.882c1.661,0,3.012,1.347,3.012,3.002v8.379c0,1.654-1.346,3-3,3H21.73
					c-1.218,0-2.306-0.727-2.771-1.853s-0.211-2.409,0.65-3.27l1.418-1.417c-1.45-0.95-3.15-1.46-4.916-1.46
					c-4.144,0.003-7.73,2.797-8.732,6.793c-0.252,1.005-1.149,1.707-2.183,1.707H1.615z"/>
			</g>
			<g>
				<path fill="#FFFFFF" d="M16.109,33.775c-3.852,0-7.564-1.26-10.599-3.573l-0.926,0.927c-0.66,0.663-1.536,1.029-2.464,1.029
					c-1.936,0-3.511-1.572-3.511-3.504v-8.379c0-1.93,1.57-3.5,3.5-3.5h8.379c1.421,0,2.69,0.848,3.232,2.159
					c0.552,1.331,0.263,2.793-0.755,3.813l-0.968,0.968c1.249,0.69,2.665,1.06,4.114,1.06c3.908-0.003,7.296-2.641,8.241-6.413
					c0.309-1.229,1.406-2.087,2.67-2.087h3.582c0.82,0,1.592,0.362,2.117,0.995c0.523,0.631,0.736,1.455,0.586,2.262
					C31.751,27.786,24.518,33.775,16.109,33.775z M1.615,16.276c-0.821,0-1.593-0.363-2.118-0.995
					c-0.524-0.634-0.737-1.457-0.586-2.261C0.467,4.766,7.699-1.224,16.109-1.224c3.851,0,7.564,1.26,10.598,3.573l0.928-0.927
					c0.661-0.662,1.536-1.028,2.463-1.028c1.937,0.001,3.512,1.573,3.512,3.503v8.379c0,1.93-1.57,3.5-3.5,3.5H21.73
					c-1.423,0-2.691-0.849-3.234-2.163c-0.544-1.312-0.246-2.81,0.762-3.814l0.964-0.963c-1.249-0.69-2.664-1.06-4.11-1.06
					c-3.909,0.003-7.301,2.641-8.247,6.415c-0.306,1.227-1.403,2.085-2.668,2.085H1.615z"/>
			</g>
		</g>
	</g>
</g>
<g id="Layer_2_4_">
	<g id="Layer_2_5_">
		<circle fill="#ED1C24" stroke="#000000" stroke-width="0.5" stroke-miterlimit="10" cx="16.131" cy="16.276" r="15.453"/>
		<path fill="#FFFFFF" stroke="#000000" stroke-width="0.5" stroke-miterlimit="10" d="M31.488,16.229
			c0,8.509-6.896,15.406-15.406,15.406c-8.508,0-15.407-6.896-15.407-15.406"/>
		<line fill="none" stroke="#000000" stroke-width="2" stroke-miterlimit="10" x1="0.631" y1="16.229" x2="31.578" y2="16.229"/>
		<circle fill="#FFFFFF" stroke="#000000" stroke-width="0.5" stroke-miterlimit="10" cx="16.131" cy="16.229" r="4.438"/>
		<circle fill="#FFFFFF" stroke="#000000" stroke-width="0.25" stroke-miterlimit="10" cx="16.131" cy="16.229" r="2.424"/>
	</g>
	<g id="Layer_1_4_" focusable="false">
		<path d="M23.279,8.606c-1.953-1.83-4.488-2.833-7.179-2.83C11.257,5.78,7.079,9.1,5.924,13.704
			c-0.084,0.336-0.382,0.572-0.728,0.572H1.615c-0.469,0-0.825-0.425-0.738-0.886C2.23,6.209,8.535,0.776,16.109,0.776
			c4.153,0,7.924,1.633,10.708,4.293l2.232-2.232c0.943-0.945,2.561-0.276,2.561,1.06v8.379c0,0.829-0.672,1.5-1.5,1.5H21.73
			c-1.336,0-2.006-1.616-1.061-2.561L23.279,8.606z M2.109,18.775h8.379c1.336,0,2.005,1.615,1.061,2.561l-2.609,2.609
			c1.954,1.83,4.489,2.832,7.18,2.83c4.84-0.004,9.02-3.32,10.174-7.928c0.084-0.336,0.383-0.572,0.729-0.572h3.582
			c0.469,0,0.824,0.426,0.736,0.887c-1.352,7.18-7.656,12.613-15.231,12.613c-4.153,0-7.924-1.633-10.707-4.293l-2.232,2.232
			c-0.944,0.945-2.561,0.275-2.561-1.061v-8.379C0.609,19.447,1.28,18.775,2.109,18.775z"/>
	</g>
</g>
</svg>
